<svg xmlns="http://www.w3.org/2000/svg" xmlns:xlink="http://www.w3.org/1999/xlink" width="74" height="25" viewBox="0 0 74 25" fill="none">
<g >
<path     fill="url(#linear_fill_1_1_0)"  d="M8.984 13.236Q8.984 14.596 7.688 15.572Q6.392 16.548 4.728 16.548Q3.064 16.548 2.048 15.724Q1.032 14.9 1.032 14.02Q1.032 13.14 1.528 13.14Q1.912 13.14 2.328 13.524Q2.744 13.908 3.264 14.292Q3.784 14.676 4.44 14.676Q5.096 14.676 5.928 14.132Q6.76 13.588 6.76 13.22Q6.76 12.852 5.856 11.988Q4.952 11.124 4.048 10.204Q3.144 9.284 3.144 8.78Q3.144 8.276 3.328 7.684Q3.512 7.092 3.784 6.868Q4.648 6.02 6.016 5.404Q7.384 4.788 8.424 4.788Q9.032 4.788 9.432 5.308Q9.832 5.828 9.832 6.388Q9.832 6.612 9.472 6.748Q9.112 6.884 8.432 7.028Q7.752 7.172 7.048 7.444Q5.416 8.052 5.416 8.468Q5.416 8.66 5.976 9.164Q6.536 9.668 7.2 10.22Q7.864 10.772 8.424 11.612Q8.984 12.452 8.984 13.236ZM17.4 11.3Q17.4 12.084 16.336 12.708Q15.272 13.332 14.152 13.332Q13.032 13.332 12.312 13.172Q12.168 13.604 12.168 14.036Q12.168 14.468 12.312 14.652Q12.456 14.836 13.032 14.836Q14.232 14.836 15.088 14.612Q15.944 14.388 15.976 14.388Q16.632 14.388 16.632 14.82Q16.632 15.444 15.6 16.004Q14.568 16.564 13.216 16.564Q11.864 16.564 11.048 15.716Q10.232 14.868 10.232 13.708Q10.232 12.548 10.912 11.284Q11.592 10.02 12.616 9.164Q13.64 8.308 14.656 8.308Q15.672 8.308 16.536 9.308Q17.4 10.308 17.4 11.3ZM15.544 11.044Q15.544 10.884 15.208 10.58Q14.872 10.276 14.576 10.276Q14.28 10.276 13.816 10.7Q13.352 11.124 12.936 11.796Q13.08 11.812 13.352 11.812Q15.544 11.812 15.544 11.044ZM28.808 8.308Q29.432 8.308 29.848 9.14Q30.264 9.972 30.264 10.66Q30.264 11.348 30 12.7Q29.736 14.052 29.168 15.308Q28.6 16.564 27.944 16.564Q27.416 16.564 27.416 15.844Q27.416 15.124 27.832 13.492Q28.248 11.86 28.248 11.348Q28.248 10.836 28.088 10.836Q27.752 10.836 27.288 11.572Q26.824 12.308 26.176 13.54Q25.528 14.772 25.368 15.124Q25.208 15.476 25.104 15.684Q25 15.892 24.872 16.116Q24.36 16.964 23.512 16.116Q23.08 15.684 23.08 15.332Q23.08 15.268 23.344 14.108Q23.608 12.948 23.608 11.46Q23.608 10.836 23.464 10.836Q23.272 10.836 23.016 11.22Q22.76 11.604 22.232 12.612Q21.704 13.62 21.32 14.276Q19.976 16.564 19.272 16.564Q18.92 16.564 18.4 15.972Q17.88 15.38 17.88 15.068Q17.88 14.756 18.24 13.564Q18.6 12.372 18.704 11.028Q18.808 9.684 18.896 8.932Q18.984 8.18 19.272 8.18Q19.88 8.18 20.448 8.684Q21.016 9.188 21.016 9.604Q21.016 10.548 20.328 12.9Q21.448 10.228 22.216 9.284Q23.032 8.308 23.784 8.308Q24.2 8.308 24.816 9.076Q25.432 9.844 25.432 10.508Q25.432 11.172 25.416 11.668Q25.912 10.42 26.92 9.364Q27.928 8.308 28.808 8.308ZM33.4 14.932Q34.264 14.548 34.904 13.38Q35.544 12.212 35.544 11.188Q35.544 10.164 35.256 9.78Q34.568 10.18 33.888 11.46Q33.208 12.74 33.208 13.708Q33.208 14.676 33.4 14.932ZM31.064 13.876Q31.064 11.876 32.304 10.084Q33.544 8.292 34.76 8.292Q35.976 8.292 36.808 9.148Q37.64 10.004 37.64 11.212Q37.64 12.42 37.064 13.668Q36.488 14.916 35.448 15.74Q34.408 16.564 33.224 16.564Q32.344 16.564 31.704 15.78Q31.064 14.996 31.064 13.876ZM44.328 8.308Q45.16 8.308 45.792 9.052Q46.424 9.796 46.424 10.644Q46.424 12.004 45.984 13.484Q45.544 14.964 45.024 15.764Q44.504 16.564 43.968 16.564Q43.432 16.564 43.432 15.812Q43.432 15.236 43.96 13.492Q44.36 12.052 44.36 11.428Q44.36 10.804 44.2 10.804Q43.992 10.804 43.792 11.012Q43.592 11.22 43.464 11.38Q43.336 11.54 43.168 11.788Q43 12.036 42.88 12.236Q42.76 12.436 42.576 12.748Q42.392 13.06 42.28 13.26Q42.168 13.46 41.992 13.78Q40.504 16.564 39.656 16.564Q39.32 16.564 38.808 15.98Q38.296 15.396 38.296 15.124Q38.296 14.948 38.528 14.364Q38.76 13.78 38.864 13.468Q38.968 13.156 39.04 12.804Q39.112 12.452 39.16 12.044Q39.208 11.636 39.232 11.412Q39.256 11.188 39.288 10.708Q39.432 8.628 39.536 8.404Q39.64 8.18 39.768 8.18Q40.376 8.18 40.936 8.684Q41.496 9.188 41.496 9.604Q41.496 10.596 40.984 12.452Q42.024 10.628 42.88 9.468Q43.736 8.308 44.328 8.308ZM54.3529 4.596Q54.7529 4.596 55.3289 5.124Q55.9049 5.652 55.9049 6.212Q55.9049 7.748 54.3209 12.164Q53.7769 13.716 53.7769 14.324Q53.7769 14.404 53.8089 14.42Q53.8409 14.436 54.4009 14.436Q54.9609 14.436 55.9449 14.268Q56.9289 14.1 57.5449 13.94Q58.1609 13.78 58.2729 13.78Q58.6729 13.78 58.6729 14.292Q58.6729 15.3 57.1449 15.916Q55.6169 16.532 53.6009 16.532Q52.8169 16.532 52.1689 15.948Q51.5209 15.364 51.5209 14.66Q51.5209 13.956 52.7049 10.108Q53.8889 6.26 53.8889 5.124Q53.8889 4.596 54.3529 4.596ZM61.5689 6.308Q61.5689 6.308 61.5689 6.1Q61.5689 5.892 61.9449 5.452Q62.3209 5.012 62.6809 5.012Q63.0409 5.012 63.5369 5.876Q64.0329 6.74 64.0329 7.132Q64.0329 7.524 63.7769 7.732Q63.5209 7.94 63.2489 7.94Q62.7849 7.94 62.1769 7.332Q61.5689 6.724 61.5689 6.308ZM61.8089 8.308Q62.3689 8.308 62.8089 8.948Q63.2489 9.588 63.2489 10.18Q63.2489 10.484 62.6969 12.364Q62.1449 14.244 61.6009 15.924Q61.4089 16.548 60.8169 16.548Q60.4649 16.548 60.2009 16.284Q59.9369 16.02 59.9369 15.596Q59.9369 15.172 60.3449 13.484Q60.7529 11.796 60.9689 10.604Q61.1849 9.412 61.3689 8.86Q61.5529 8.308 61.8089 8.308ZM69.7769 8.708Q69.9049 8.308 70.2889 8.308Q70.6729 8.308 71.1769 8.964Q71.6809 9.62 71.6809 10.1Q71.6809 10.276 70.9449 12.452Q70.2089 14.628 69.8089 15.892Q69.5849 16.564 69.0569 16.564Q68.7369 16.564 68.5209 16.332Q68.3049 16.1 68.3049 15.604Q68.3049 15.108 68.4969 14.196Q66.8489 16.564 65.8729 16.564Q65.3609 16.564 64.6409 15.9Q63.9209 15.236 63.9209 14.612Q63.9209 13.076 64.7929 10.692Q65.6649 8.308 66.4329 8.308Q66.8969 8.308 67.2569 8.724Q67.6169 9.14 67.6169 9.636Q67.6169 9.828 67.2169 10.708Q66.0009 13.348 66.0009 14.436Q66.0009 14.532 66.0809 14.532Q66.3209 14.532 66.9849 13.772Q67.6489 13.012 68.4729 11.596Q69.2969 10.18 69.7769 8.708Z">
</path>
</g>
<defs>
<linearGradient id="linear_fill_1_1_0" x1="1" y1="12.5" x2="72" y2="12.5" gradientUnits="userSpaceOnUse">
<stop offset="0" stop-color="#FFFFFF"  />
<stop offset="0.5241" stop-color="#C3ADF7"  />
<stop offset="1" stop-color="#AB7985"  />
</linearGradient>
</defs>
</svg>
