<svg xmlns="http://www.w3.org/2000/svg" xmlns:xlink="http://www.w3.org/1999/xlink" width="70.64892578125" height="11.967987060546875" viewBox="0 0 70.64892578125 11.967987060546875" fill="none">
<g >
<path     fill="url(#linear_fill_1_1_0)"  d="M7.95202 8.63999Q7.95202 9.99999 6.65602 10.976Q5.36002 11.952 3.69602 11.952Q2.03202 11.952 1.01602 11.128Q1.75796e-05 10.304 1.75796e-05 9.42399Q1.75796e-05 8.54399 0.496018 8.54399Q0.880018 8.54399 1.29602 8.92799Q1.71202 9.31199 2.23202 9.69599Q2.75202 10.08 3.40802 10.08Q4.06402 10.08 4.89602 9.53599Q5.72802 8.99199 5.72802 8.62399Q5.72802 8.25599 4.82402 7.39199Q3.92002 6.52799 3.01602 5.60799Q2.11202 4.68799 2.11202 4.18399Q2.11202 3.67999 2.29602 3.08799Q2.48002 2.49599 2.75202 2.27199Q3.61602 1.42399 4.98402 0.807991Q6.35202 0.191991 7.39202 0.191991Q8.00002 0.191991 8.40002 0.71199Q8.80002 1.23199 8.80002 1.79199Q8.80002 2.01599 8.44002 2.15199Q8.08002 2.28799 7.40002 2.43199Q6.72002 2.57599 6.01602 2.84799Q4.38402 3.45599 4.38402 3.87199Q4.38402 4.06399 4.94402 4.56799Q5.50402 5.07199 6.16802 5.62399Q6.83202 6.17599 7.39202 7.01599Q7.95202 7.85599 7.95202 8.63999ZM16.368 6.70399Q16.368 7.48799 15.304 8.11199Q14.24 8.73599 13.12 8.73599Q12 8.73599 11.28 8.57599Q11.136 9.00799 11.136 9.43999Q11.136 9.87199 11.28 10.056Q11.424 10.24 12 10.24Q13.2 10.24 14.056 10.016Q14.912 9.79199 14.944 9.79199Q15.6 9.79199 15.6 10.224Q15.6 10.848 14.568 11.408Q13.536 11.968 12.184 11.968Q10.832 11.968 10.016 11.12Q9.20002 10.272 9.20002 9.11199Q9.20002 7.95199 9.88002 6.68799Q10.56 5.42399 11.584 4.56799Q12.608 3.71199 13.624 3.71199Q14.64 3.71199 15.504 4.71199Q16.368 5.71199 16.368 6.70399ZM14.512 6.44799Q14.512 6.28799 14.176 5.98399Q13.84 5.67999 13.544 5.67999Q13.248 5.67999 12.784 6.10399Q12.32 6.52799 11.904 7.19999Q12.048 7.21599 12.32 7.21599Q14.512 7.21599 14.512 6.44799ZM27.776 3.71199Q28.4 3.71199 28.816 4.54399Q29.232 5.37599 29.232 6.06399Q29.232 6.75199 28.968 8.10399Q28.704 9.45599 28.136 10.712Q27.568 11.968 26.912 11.968Q26.384 11.968 26.384 11.248Q26.384 10.528 26.8 8.89599Q27.216 7.26399 27.216 6.75199Q27.216 6.23999 27.056 6.23999Q26.72 6.23999 26.256 6.97599Q25.792 7.71199 25.144 8.94399Q24.496 10.176 24.336 10.528Q24.176 10.88 24.072 11.088Q23.968 11.296 23.84 11.52Q23.328 12.368 22.48 11.52Q22.048 11.088 22.048 10.736Q22.048 10.672 22.312 9.51199Q22.576 8.35199 22.576 6.86399Q22.576 6.23999 22.432 6.23999Q22.24 6.23999 21.984 6.62399Q21.728 7.00799 21.2 8.01599Q20.672 9.02399 20.288 9.67999Q18.944 11.968 18.24 11.968Q17.888 11.968 17.368 11.376Q16.848 10.784 16.848 10.472Q16.848 10.16 17.208 8.96799Q17.568 7.77599 17.672 6.43199Q17.776 5.08799 17.864 4.33599Q17.952 3.58399 18.24 3.58399Q18.848 3.58399 19.416 4.08799Q19.984 4.59199 19.984 5.00799Q19.984 5.95199 19.296 8.30399Q20.416 5.63199 21.184 4.68799Q22 3.71199 22.752 3.71199Q23.168 3.71199 23.784 4.47999Q24.4 5.24799 24.4 5.91199Q24.4 6.57599 24.384 7.07199Q24.88 5.82399 25.888 4.76799Q26.896 3.71199 27.776 3.71199ZM32.368 10.336Q33.232 9.95199 33.872 8.78399Q34.512 7.61599 34.512 6.59199Q34.512 5.56799 34.224 5.18399Q33.536 5.58399 32.856 6.86399Q32.176 8.14399 32.176 9.11199Q32.176 10.08 32.368 10.336ZM30.032 9.27999Q30.032 7.27999 31.272 5.48799Q32.512 3.69599 33.728 3.69599Q34.944 3.69599 35.776 4.55199Q36.608 5.40799 36.608 6.61599Q36.608 7.82399 36.032 9.07199Q35.456 10.32 34.416 11.144Q33.376 11.968 32.192 11.968Q31.312 11.968 30.672 11.184Q30.032 10.4 30.032 9.27999ZM43.296 3.71199Q44.128 3.71199 44.76 4.45599Q45.392 5.19999 45.392 6.04799Q45.392 7.40799 44.952 8.88799Q44.512 10.368 43.992 11.168Q43.472 11.968 42.936 11.968Q42.4 11.968 42.4 11.216Q42.4 10.64 42.928 8.89599Q43.328 7.45599 43.328 6.83199Q43.328 6.20799 43.168 6.20799Q42.96 6.20799 42.76 6.41599Q42.56 6.62399 42.432 6.78399Q42.304 6.94399 42.136 7.19199Q41.968 7.43999 41.848 7.63999Q41.728 7.83999 41.544 8.15199Q41.36 8.46399 41.248 8.66399Q41.136 8.86399 40.96 9.18399Q39.472 11.968 38.624 11.968Q38.288 11.968 37.776 11.384Q37.264 10.8 37.264 10.528Q37.264 10.352 37.496 9.76799Q37.728 9.18399 37.832 8.87199Q37.936 8.55999 38.008 8.20799Q38.08 7.85599 38.128 7.44799Q38.176 7.03999 38.2 6.81599Q38.224 6.59199 38.256 6.11199Q38.4 4.03199 38.504 3.80799Q38.608 3.58399 38.736 3.58399Q39.344 3.58399 39.904 4.08799Q40.464 4.59199 40.464 5.00799Q40.464 5.99999 39.952 7.85599Q40.992 6.03199 41.848 4.87199Q42.704 3.71199 43.296 3.71199ZM53.321 -8.58307e-06Q53.721 -8.58307e-06 54.297 0.527991Q54.873 1.05599 54.873 1.61599Q54.873 3.15199 53.289 7.56799Q52.745 9.11999 52.745 9.72799Q52.745 9.80799 52.777 9.82399Q52.809 9.83999 53.369 9.83999Q53.929 9.83999 54.913 9.67199Q55.897 9.50399 56.513 9.34399Q57.129 9.18399 57.241 9.18399Q57.641 9.18399 57.641 9.69599Q57.641 10.704 56.113 11.32Q54.585 11.936 52.569 11.936Q51.785 11.936 51.137 11.352Q50.489 10.768 50.489 10.064Q50.489 9.35999 51.673 5.51199Q52.857 1.66399 52.857 0.527991Q52.857 -8.58307e-06 53.321 -8.58307e-06ZM60.537 1.71199Q60.537 1.71199 60.537 1.50399Q60.537 1.29599 60.913 0.855991Q61.289 0.415992 61.649 0.415992Q62.009 0.415992 62.505 1.27999Q63.001 2.14399 63.001 2.53599Q63.001 2.92799 62.745 3.13599Q62.489 3.34399 62.217 3.34399Q61.753 3.34399 61.145 2.73599Q60.537 2.12799 60.537 1.71199ZM60.777 3.71199Q61.337 3.71199 61.777 4.35199Q62.217 4.99199 62.217 5.58399Q62.217 5.88799 61.665 7.76799Q61.113 9.64799 60.569 11.328Q60.377 11.952 59.785 11.952Q59.433 11.952 59.169 11.688Q58.905 11.424 58.905 11Q58.905 10.576 59.313 8.88799Q59.721 7.19999 59.937 6.00799Q60.153 4.81599 60.337 4.26399Q60.521 3.71199 60.777 3.71199ZM68.745 4.11199Q68.873 3.71199 69.257 3.71199Q69.641 3.71199 70.145 4.36799Q70.649 5.02399 70.649 5.50399Q70.649 5.67999 69.913 7.85599Q69.177 10.032 68.777 11.296Q68.553 11.968 68.025 11.968Q67.705 11.968 67.489 11.736Q67.273 11.504 67.273 11.008Q67.273 10.512 67.465 9.59999Q65.817 11.968 64.841 11.968Q64.329 11.968 63.609 11.304Q62.889 10.64 62.889 10.016Q62.889 8.47999 63.761 6.09599Q64.633 3.71199 65.401 3.71199Q65.865 3.71199 66.225 4.12799Q66.585 4.54399 66.585 5.03999Q66.585 5.23199 66.185 6.11199Q64.969 8.75199 64.969 9.83999Q64.969 9.93599 65.049 9.93599Q65.289 9.93599 65.953 9.17599Q66.617 8.41599 67.441 6.99999Q68.265 5.58399 68.745 4.11199Z">
</path>
</g>
<defs>
<linearGradient id="linear_fill_1_1_0" x1="-0.031982421875" y1="7.90399169921875" x2="70.968017578125" y2="7.90399169921875" gradientUnits="userSpaceOnUse">
<stop offset="0" stop-color="#FFFFFF"  />
<stop offset="0.3293" stop-color="#7947ED"  />
<stop offset="0.7585" stop-color="#BD6277"  />
<stop offset="1" stop-color="#FFFFFF"  />
</linearGradient>
</defs>
</svg>
